<?xml version="1.0" standalone="no"?>
<!DOCTYPE svg PUBLIC "-//W3C//DTD SVG 20010904//EN"
 "http://www.w3.org/TR/2001/REC-SVG-20010904/DTD/svg10.dtd">
<svg version="1.0" xmlns="http://www.w3.org/2000/svg"
 width="448.000000pt" height="448.000000pt" viewBox="0 0 448.000000 448.000000"
 preserveAspectRatio="xMidYMid meet">
<metadata>
Created by potrace 1.11, written by Peter Selinger 2001-2013
</metadata>
<g transform="translate(0.000000,448.000000) scale(0.100000,-0.100000)"
fill="#000000" stroke="none">
<path d="M2040 4452 c0 -4 -15 -6 -33 -4 -47 5 -261 -32 -388 -68 -513 -145
-949 -462 -1232 -895 -129 -198 -238 -439 -296 -655 -59 -222 -73 -332 -78
-610 -3 -150 -1 -276 5 -305 5 -27 20 -99 32 -159 12 -60 44 -173 71 -250 214
-600 644 -1061 1225 -1312 193 -84 374 -134 639 -176 110 -17 392 -14 550 7
641 84 1235 452 1580 979 40 61 77 121 84 133 6 12 18 29 27 37 25 26 119 233
157 346 67 202 111 502 88 596 -6 23 -11 56 -11 73 0 16 -4 32 -9 35 -4 3 -11
-43 -15 -102 -6 -100 -12 -135 -36 -214 -5 -18 -25 -91 -44 -163 -19 -71 -48
-170 -66 -220 -70 -199 -241 -505 -375 -670 -199 -245 -368 -386 -655 -546
-194 -108 -329 -162 -517 -208 -182 -44 -288 -56 -513 -56 -220 1 -336 14
-524 61 -772 192 -1383 798 -1581 1569 -52 200 -69 341 -69 560 0 360 67 649
223 970 316 650 924 1093 1646 1201 145 21 445 24 585 5 479 -64 896 -265
1241 -598 187 -180 330 -375 439 -598 131 -269 191 -488 225 -830 l14 -140 -5
120 c-21 534 -244 1032 -644 1436 -279 281 -533 434 -955 574 -90 30 -244 61
-367 74 -113 13 -418 15 -418 3z"/>
<path d="M1992 3300 c-150 -128 -438 -495 -619 -792 l-67 -110 -66 4 c-64 3
-65 2 -68 -23 -2 -19 7 -37 31 -63 l35 -36 -35 -80 c-50 -115 -61 -186 -39
-244 19 -49 53 -69 79 -47 8 6 51 83 96 171 75 146 85 160 109 160 15 0 95 7
177 15 83 8 160 15 172 15 21 0 21 -4 20 -102 -2 -157 34 -245 107 -264 45
-11 52 7 65 176 14 185 18 202 40 196 9 -2 32 -7 52 -10 l37 -6 4 -88 c3 -72
9 -96 33 -140 53 -97 148 -143 296 -143 198 -1 332 95 482 343 72 119 355 683
403 803 24 58 28 85 29 160 0 78 -3 94 -23 123 -59 82 -84 44 -418 -623 -206
-412 -290 -552 -377 -631 -87 -80 -176 -95 -214 -38 -30 46 -29 165 1 285 30
122 31 132 11 149 -37 30 -148 -37 -190 -114 l-19 -34 -26 41 c-15 23 -38 48
-52 56 l-25 13 28 133 c36 171 50 227 106 414 51 172 52 205 9 288 -56 110
-94 119 -184 43z m-71 -471 c-22 -84 -47 -205 -57 -268 -10 -62 -23 -115 -29
-117 -15 -5 -299 -41 -303 -38 -5 3 107 170 191 284 100 135 229 301 233 297
2 -2 -14 -73 -35 -158z"/>
<path d="M692 1750 c-18 -11 -37 -32 -42 -46 -27 -69 2 -113 94 -144 36 -12
70 -28 76 -35 39 -47 -54 -62 -125 -21 l-42 25 -16 -35 -17 -34 32 -20 c39
-24 103 -34 166 -27 62 7 102 49 102 108 0 51 -28 80 -101 104 -63 20 -84 37
-76 59 8 20 56 21 104 1 19 -8 37 -15 39 -15 10 0 35 63 27 70 -38 34 -171 40
-221 10z"/>
<path d="M1068 1750 c-96 -51 -124 -168 -62 -262 49 -75 161 -101 251 -57 123
60 126 251 4 316 -56 29 -140 31 -193 3z m165 -90 c68 -75 -6 -205 -96 -171
-45 17 -67 51 -67 100 1 49 10 66 50 94 34 24 78 15 113 -23z"/>
<path d="M1430 1590 l0 -180 120 0 120 0 0 40 0 40 -75 0 -75 0 0 140 0 140
-45 0 -45 0 0 -180z"/>
<path d="M1730 1643 c0 -144 11 -176 72 -213 47 -29 134 -27 179 3 57 38 69
75 69 215 l0 122 -45 0 -45 0 0 -120 c0 -115 -1 -122 -25 -145 -13 -14 -33
-25 -45 -25 -11 0 -32 11 -45 25 -24 23 -25 30 -25 145 l0 120 -45 0 -45 0 0
-127z"/>
<path d="M2120 1735 l0 -35 50 0 50 0 0 -145 0 -145 45 0 45 0 0 145 0 145 55
0 55 0 0 35 0 35 -150 0 -150 0 0 -35z"/>
<path d="M2480 1590 l0 -180 45 0 45 0 0 180 0 180 -45 0 -45 0 0 -180z"/>
<path d="M2738 1750 c-96 -51 -124 -168 -62 -262 49 -75 161 -101 251 -57 123
60 126 251 4 316 -56 29 -140 31 -193 3z m165 -90 c68 -75 -6 -205 -96 -171
-45 17 -67 51 -67 100 1 49 10 66 50 94 34 24 78 15 113 -23z"/>
<path d="M3100 1590 l0 -180 40 0 39 0 3 106 3 105 78 -105 c77 -103 80 -106
118 -106 l39 0 0 180 0 180 -40 0 -39 0 -3 -107 -3 -108 -79 108 c-77 103 -81
107 -118 107 l-38 0 0 -180z"/>
<path d="M3572 1750 c-18 -11 -37 -32 -42 -46 -27 -69 2 -113 94 -144 36 -12
70 -28 76 -35 39 -47 -54 -62 -125 -21 l-42 25 -16 -35 -17 -34 32 -20 c39
-24 103 -34 166 -27 62 7 102 49 102 108 0 51 -28 80 -101 104 -63 20 -84 37
-76 59 8 20 56 21 104 1 19 -8 37 -15 39 -15 10 0 35 63 27 70 -38 34 -171 40
-221 10z"/>
</g>
</svg>
